name ./resultDataOpenSim/trcMotMarkerGrf/sub10/grf-12-06.mot
datacolumns 19
datarows 25
range 0.48000000 0.57600000
endheader

                time	     ground_force_vx	     ground_force_vy	     ground_force_vz	     ground_force_px	     ground_force_py	     ground_force_pz	   l_ground_force_vx	   l_ground_force_vy	   l_ground_force_vz	   l_ground_force_px	   l_ground_force_py	   l_ground_force_pz	     ground_torque_x	     ground_torque_y	     ground_torque_z	   l_ground_torque_x	   l_ground_torque_y	   l_ground_torque_z	
          0.48000000	         33.61397353	        485.12754444	        -27.77661328	         -0.81481609	          0.00000000	          0.03795727	          0.00000000	          0.00000000	          0.00000000	          0.00000000	          0.00000000	          0.00000000	          0.00000000	          2.86733271	          0.00000000	          0.00000000	          0.00000000	          0.00000000	
          0.48400000	         36.67903323	        491.77487361	        -28.97601062	         -0.81310252	          0.00000000	          0.03811012	          0.00000000	          0.00000000	          0.00000000	          0.00000000	          0.00000000	          0.00000000	          0.00000000	          2.86969174	          0.00000000	          0.00000000	          0.00000000	          0.00000000	
          0.48800000	         39.50948486	        499.14706539	        -29.79265937	         -0.81125067	          0.00000000	          0.03822741	          0.00000000	          0.00000000	          0.00000000	          0.00000000	          0.00000000	          0.00000000	          0.00000000	          2.88637444	          0.00000000	          0.00000000	          0.00000000	          0.00000000	
          0.49200000	         41.96215385	        507.32263801	        -30.26776599	         -0.80926455	          0.00000000	          0.03830446	          0.00000000	          0.00000000	          0.00000000	          0.00000000	          0.00000000	          0.00000000	          0.00000000	          2.92032879	          0.00000000	          0.00000000	          0.00000000	          0.00000000	
          0.49600000	         44.00411358	        516.34925032	        -30.51308539	         -0.80716571	          0.00000000	          0.03834458	          0.00000000	          0.00000000	          0.00000000	          0.00000000	          0.00000000	          0.00000000	          0.00000000	          2.96911168	          0.00000000	          0.00000000	          0.00000000	          0.00000000	
          0.50000000	         45.71929844	        526.23516632	        -30.68456983	         -0.80499244	          0.00000000	          0.03835915	          0.00000000	          0.00000000	          0.00000000	          0.00000000	          0.00000000	          0.00000000	          0.00000000	          3.02595751	          0.00000000	          0.00000000	          0.00000000	          0.00000000	
          0.50400000	         47.28522577	        536.92446562	        -30.94752386	         -0.80279407	          0.00000000	          0.03835831	          0.00000000	          0.00000000	          0.00000000	          0.00000000	          0.00000000	          0.00000000	          0.00000000	          3.08189242	          0.00000000	          0.00000000	          0.00000000	          0.00000000	
          0.50800000	         48.92443364	        548.28937362	        -31.44111966	         -0.80062201	          0.00000000	          0.03835249	          0.00000000	          0.00000000	          0.00000000	          0.00000000	          0.00000000	          0.00000000	          0.00000000	          3.12825732	          0.00000000	          0.00000000	          0.00000000	          0.00000000	
          0.51200000	         50.84965504	        560.15989949	        -32.24962103	         -0.79852143	          0.00000000	          0.03834902	          0.00000000	          0.00000000	          0.00000000	          0.00000000	          0.00000000	          0.00000000	          0.00000000	          3.15898684	          0.00000000	          0.00000000	          0.00000000	          0.00000000	
          0.51600000	         53.21862587	        572.37740943	        -33.38791738	         -0.79652292	          0.00000000	          0.03835980	          0.00000000	          0.00000000	          0.00000000	          0.00000000	          0.00000000	          0.00000000	          0.00000000	          3.17215217	          0.00000000	          0.00000000	          0.00000000	          0.00000000	
          0.52000000	         56.09209882	        584.86547843	        -34.80201754	         -0.79463827	          0.00000000	          0.03838825	          0.00000000	          0.00000000	          0.00000000	          0.00000000	          0.00000000	          0.00000000	          0.00000000	          3.17046169	          0.00000000	          0.00000000	          0.00000000	          0.00000000	
          0.52400000	         59.40625566	        597.68540817	        -36.37498031	         -0.79288092	          0.00000000	          0.03841597	          0.00000000	          0.00000000	          0.00000000	          0.00000000	          0.00000000	          0.00000000	          0.00000000	          3.16056449	          0.00000000	          0.00000000	          0.00000000	          0.00000000	
          0.52800000	         63.00301296	        610.97125319	        -37.94155601	         -0.79128406	          0.00000000	          0.03841653	          0.00000000	          0.00000000	          0.00000000	          0.00000000	          0.00000000	          0.00000000	          0.00000000	          3.15124392	          0.00000000	          0.00000000	          0.00000000	          0.00000000	
          0.53200000	         66.70549712	        624.73764584	        -39.33330216	         -0.78986173	          0.00000000	          0.03837954	          0.00000000	          0.00000000	          0.00000000	          0.00000000	          0.00000000	          0.00000000	          0.00000000	          3.15099079	          0.00000000	          0.00000000	          0.00000000	          0.00000000	
          0.53600000	         70.37343226	        638.79161989	        -40.44222569	         -0.78855913	          0.00000000	          0.03831535	          0.00000000	          0.00000000	          0.00000000	          0.00000000	          0.00000000	          0.00000000	          0.00000000	          3.16577471	          0.00000000	          0.00000000	          0.00000000	          0.00000000	
          0.54000000	         73.93865385	        652.89922388	        -41.24429732	         -0.78729725	          0.00000000	          0.03823353	          0.00000000	          0.00000000	          0.00000000	          0.00000000	          0.00000000	          0.00000000	          0.00000000	          3.19777080	          0.00000000	          0.00000000	          0.00000000	          0.00000000	
          0.54400000	         77.45008186	        666.99653841	        -41.76402587	         -0.78608176	          0.00000000	          0.03812214	          0.00000000	          0.00000000	          0.00000000	          0.00000000	          0.00000000	          0.00000000	          0.00000000	          3.24536083	          0.00000000	          0.00000000	          0.00000000	          0.00000000	
          0.54800000	         81.07709659	        681.17702170	        -42.03841346	         -0.78501299	          0.00000000	          0.03795327	          0.00000000	          0.00000000	          0.00000000	          0.00000000	          0.00000000	          0.00000000	          0.00000000	          3.30424560	          0.00000000	          0.00000000	          0.00000000	          0.00000000	
          0.55200000	         85.02433027	        695.48487372	        -42.11304774	         -0.78417938	          0.00000000	          0.03770859	          0.00000000	          0.00000000	          0.00000000	          0.00000000	          0.00000000	          0.00000000	          0.00000000	          3.36924713	          0.00000000	          0.00000000	          0.00000000	          0.00000000	
          0.55600000	         89.43270291	        709.74796271	        -42.03268289	         -0.78356087	          0.00000000	          0.03739126	          0.00000000	          0.00000000	          0.00000000	          0.00000000	          0.00000000	          0.00000000	          0.00000000	          3.43627619	          0.00000000	          0.00000000	          0.00000000	          0.00000000	
          0.56000000	         94.35466186	        723.62118872	        -41.81516328	         -0.78305261	          0.00000000	          0.03701659	          0.00000000	          0.00000000	          0.00000000	          0.00000000	          0.00000000	          0.00000000	          0.00000000	          3.50384848	          0.00000000	          0.00000000	          0.00000000	          0.00000000	
          0.56400000	         99.78164869	        736.80186423	        -41.43732786	         -0.78257271	          0.00000000	          0.03659812	          0.00000000	          0.00000000	          0.00000000	          0.00000000	          0.00000000	          0.00000000	          0.00000000	          3.57356340	          0.00000000	          0.00000000	          0.00000000	          0.00000000	
          0.56800000	        105.66321585	        749.18223639	        -40.84143537	         -0.78212811	          0.00000000	          0.03613976	          0.00000000	          0.00000000	          0.00000000	          0.00000000	          0.00000000	          0.00000000	          0.00000000	          3.64929663	          0.00000000	          0.00000000	          0.00000000	          0.00000000	
          0.57200000	        111.91271689	        760.73614798	        -39.96038731	         -0.78177760	          0.00000000	          0.03564005	          0.00000000	          0.00000000	          0.00000000	          0.00000000	          0.00000000	          0.00000000	          0.00000000	          3.73540253	          0.00000000	          0.00000000	          0.00000000	          0.00000000	
          0.57600000	        118.43337665	        771.24757175	        -38.74806798	         -0.78153222	          0.00000000	          0.03510814	          0.00000000	          0.00000000	          0.00000000	          0.00000000	          0.00000000	          0.00000000	          0.00000000	          3.83466437	          0.00000000	          0.00000000	          0.00000000	          0.00000000	
